<svg width="211" height="155" viewBox="0 0 211 155" fill="none" xmlns="http://www.w3.org/2000/svg">
<path d="M187.267 128.689L187.267 5.29236L2.00006 5.29235L2.00006 128.689L187.267 128.689Z" stroke="#706F6F" stroke-width="3" stroke-miterlimit="10"/>
<path d="M57.1482 128.621C57.1482 112.364 43.9785 99.1948 27.7222 99.1948L27.7222 128.621" stroke="#706F6F" stroke-width="3" stroke-miterlimit="10"/>
<path d="M162.3 9.47653L162.3 2L129.513 2L129.513 9.47653L162.3 9.47653Z" fill="white" stroke="#706F6F" stroke-width="3" stroke-miterlimit="10"/>
<path d="M111.062 9.47653L111.062 2L78.2745 2L78.2745 9.47653L111.062 9.47653Z" fill="white" stroke="#706F6F" stroke-width="3" stroke-miterlimit="10"/>
<path d="M59.7546 9.47653L59.7546 2L26.9677 2L26.9677 9.47653L59.7546 9.47653Z" fill="white" stroke="#706F6F" stroke-width="3" stroke-miterlimit="10"/>
<path d="M203.866 5.29236L203.866 128.621" stroke="#706F6F" stroke-width="3" stroke-miterlimit="10"/>
<path d="M211 5.29236L196.801 5.29236" stroke="#706F6F" stroke-width="3" stroke-miterlimit="10"/>
<path d="M211 128.621L196.801 128.621" stroke="#706F6F" stroke-width="3" stroke-miterlimit="10"/>
<path d="M186.856 147.346L2.41166 147.346" stroke="#706F6F" stroke-width="3" stroke-miterlimit="10"/>
<path d="M186.856 154.48L186.856 140.213" stroke="#706F6F" stroke-width="3" stroke-miterlimit="10"/>
<path d="M2.00012 154.48L2.00012 140.213" stroke="#706F6F" stroke-width="3" stroke-miterlimit="10"/>
<rect x="153.005" y="18.4136" width="42.6754" height="6.56544" transform="rotate(90 153.005 18.4136)" fill="#186B2F"/>
<rect x="153.005" y="73.1256" width="42.6754" height="6.56544" transform="rotate(90 153.005 73.1256)" fill="#186B2F"/>
<rect x="136.592" y="18.4136" width="42.6754" height="6.56544" transform="rotate(90 136.592 18.4136)" fill="#186B2F"/>
<rect x="136.592" y="73.1256" width="42.6754" height="6.56544" transform="rotate(90 136.592 73.1256)" fill="#186B2F"/>
<rect x="120.178" y="18.4136" width="42.6754" height="6.56544" transform="rotate(90 120.178 18.4136)" fill="#186B2F"/>
<rect x="120.178" y="73.1256" width="42.6754" height="6.56544" transform="rotate(90 120.178 73.1256)" fill="#186B2F"/>
<rect x="103.764" y="18.4136" width="42.6754" height="6.56544" transform="rotate(90 103.764 18.4136)" fill="#186B2F"/>
<rect x="103.764" y="73.1256" width="42.6754" height="6.56544" transform="rotate(90 103.764 73.1256)" fill="#186B2F"/>
<rect x="87.3508" y="18.4136" width="42.6754" height="6.56544" transform="rotate(90 87.3508 18.4136)" fill="#186B2F"/>
<rect x="87.3508" y="73.1256" width="42.6754" height="6.56544" transform="rotate(90 87.3508 73.1256)" fill="#186B2F"/>
<rect x="70.9373" y="18.4136" width="42.6754" height="6.56544" transform="rotate(90 70.9373 18.4136)" fill="#6B2218"/>
<rect x="70.9373" y="73.1256" width="42.6754" height="6.56544" transform="rotate(90 70.9373 73.1256)" fill="#6B2218"/>
</svg>
