<svg width="118" height="117" viewBox="0 0 118 117" fill="none" xmlns="http://www.w3.org/2000/svg">
<path d="M34.214 33.8053C33.8305 32.5962 32.5309 31.9246 31.3124 32.3053C30.0935 32.6856 29.4164 33.9737 29.7996 35.1821C29.9845 35.7648 30.0783 36.3736 30.0783 36.9926C30.0783 40.3143 27.3537 43.017 24.0047 43.017C20.6546 43.017 17.9289 40.3146 17.9289 36.9926C17.9289 33.6719 20.6544 30.9706 24.0047 30.9706C24.6081 30.9706 25.2034 31.0576 25.774 31.2292C26.9969 31.5972 28.2889 30.913 28.6602 29.7007C29.0312 28.4882 28.3412 27.2071 27.1184 26.839C26.1119 26.536 25.0644 26.3822 24.005 26.3822C18.1031 26.3822 13.3018 31.142 13.3018 36.9924C13.3018 42.8442 18.1031 47.6049 24.005 47.6049C29.9054 47.6049 34.7058 42.8442 34.7058 36.9924C34.7058 35.9065 34.5404 34.8341 34.214 33.8053Z" fill="#505050"/>
<path d="M115.686 86.7175C114.408 86.7175 113.373 87.7449 113.373 89.0116V90.8468C113.373 92.1137 114.409 93.1409 115.686 93.1409C116.964 93.1409 118 92.1139 118 90.847V89.0118C118 87.7449 116.964 86.7175 115.686 86.7175Z" fill="#505050"/>
<path d="M115.686 84.4235C116.964 84.4235 118 83.3961 118 82.1295V58.5C118 57.2331 116.964 56.206 115.686 56.206H38.1548C44.1235 51.8719 48.0078 44.8741 48.0078 36.9928C48.0078 23.8701 37.2403 13.1936 24.0052 13.1936C10.7687 13.1936 0 23.8699 0 36.9926V80.0072C0 93.13 10.7687 103.806 24.0049 103.806H115.686C116.964 103.806 118 102.779 118 101.512V97.7293C118 96.4624 116.964 95.4352 115.686 95.4352C114.409 95.4352 113.373 96.4627 113.373 97.7293V99.2181H94.8628V60.7941H113.373V82.1295C113.373 83.3964 114.408 84.4235 115.686 84.4235ZM24.0049 17.7817C34.6883 17.7817 43.38 26.3995 43.38 36.9926C43.38 47.5868 34.6883 56.2057 24.0049 56.2057C13.3202 56.2057 4.62758 47.5868 4.62758 36.9926C4.62735 26.3995 13.3202 17.7817 24.0049 17.7817ZM90.2352 99.2183H81.9058V93.0907C81.9058 91.8238 80.8699 90.7966 79.5922 90.7966C78.3144 90.7966 77.2785 91.824 77.2785 93.0907V99.2183H69.2568V97.3025C69.2568 96.0356 68.2208 95.0084 66.9431 95.0084C65.6654 95.0084 64.6294 96.0358 64.6294 97.3025V99.2183H56.61V93.0907C56.61 91.8238 55.5741 90.7966 54.2964 90.7966C53.0184 90.7966 51.9827 91.824 51.9827 93.0907V99.2183H43.961V97.3025C43.961 96.0356 42.925 95.0084 41.6473 95.0084C40.3694 95.0084 39.3336 96.0358 39.3336 97.3025V99.2183H31.3119V93.0907C31.3119 91.8238 30.276 90.7966 28.9983 90.7966C27.7203 90.7966 26.6846 91.824 26.6846 93.0907V99.2183H24.0054C22.1531 99.2183 20.3628 98.9542 18.6654 98.4704V95.7771C18.6654 94.5102 17.6295 93.483 16.3518 93.483C15.0738 93.483 14.0381 94.5104 14.0381 95.7771V96.4748C8.40473 93.1108 4.62804 86.9889 4.62804 80.0072V51.0237C8.99911 56.9425 16.0568 60.7941 24.0054 60.7941H26.6846V66.9217C26.6846 68.1886 27.7206 69.2158 28.9983 69.2158C30.2762 69.2158 31.3119 68.1884 31.3119 66.9217V60.7941H51.9827V66.9217C51.9827 68.1886 53.0186 69.2158 54.2964 69.2158C55.5743 69.2158 56.61 68.1884 56.61 66.9217V60.7941H77.2785V66.9217C77.2785 68.1886 78.3144 69.2158 79.5922 69.2158C80.8699 69.2158 81.9058 68.1884 81.9058 66.9217V60.7941H90.2352V99.2183Z" fill="#505050"/>
<path d="M104.118 73.8134C100.673 73.8134 97.8707 76.5919 97.8707 80.0075C97.8707 83.4229 100.673 86.2017 104.118 86.2017C107.562 86.2017 110.365 83.4229 110.365 80.0075C110.365 76.5919 107.562 73.8134 104.118 73.8134ZM104.118 81.6133C103.225 81.6133 102.498 80.8928 102.498 80.0075C102.498 79.1222 103.225 78.4017 104.118 78.4017C105.011 78.4017 105.737 79.1222 105.737 80.0075C105.737 80.8928 105.011 81.6133 104.118 81.6133Z" fill="#505050"/>
</svg>
