<svg width="179" height="528" viewBox="0 0 179 528" fill="none" xmlns="http://www.w3.org/2000/svg">
<path d="M117.131 51.2632H64.0771V256.052H117.131V51.2632Z" fill="#F6CEB0"/>
<path d="M116.92 346.959H48.0726C21.7184 346.959 -1.36697 349.335 0.063103 331.914V220.788C0.063103 190.698 21.7184 166.15 48.0726 166.15H116.92V346.959Z" fill="#DADADA"/>
<path d="M63.9986 349.618H131.397C157.196 349.618 179.795 351.996 178.396 334.556V223.309C178.396 193.186 157.196 168.611 131.397 168.611H63.9986V349.618Z" fill="#DADADA"/>
<path d="M90.6037 200.825C105.405 200.825 117.404 189.231 117.404 174.929C117.404 160.627 105.405 149.033 90.6037 149.033C75.8024 149.033 63.8035 160.627 63.8035 174.929C63.8035 189.231 75.8024 200.825 90.6037 200.825Z" fill="#F6CEB0"/>
<path d="M137.094 116.267H39.4642C25.7906 116.267 14.3048 105.433 14.3048 91.9567V24.3104C14.3048 11.0982 25.5172 0 39.4642 0H137.094C150.767 0 162.253 10.834 162.253 24.3104V91.6924C162.253 105.169 150.767 116.267 137.094 116.267Z" fill="#3D3B3A"/>
<path d="M110.02 148.504H67.3586C44.1135 148.504 25.2439 130.272 25.2439 107.811V70.5526C25.2439 45.978 46.0278 25.8955 71.4607 25.8955H105.918C131.351 25.8955 152.135 45.978 152.135 70.5526V107.811C152.408 130.272 133.265 148.504 110.02 148.504Z" fill="#F6CEB0"/>
<path d="M115.49 110.19C115.49 127.101 103.457 140.842 88.6893 140.842C73.9218 140.842 61.889 127.101 61.889 110.19" fill="#F4A194"/>
<path d="M78.2976 92.4854C77.2037 92.4854 76.1098 91.6927 76.1098 90.3715C76.1098 88.5218 74.469 86.9363 72.5547 86.9363C70.6404 86.9363 68.9996 88.5218 68.9996 90.3715C68.9996 91.4284 68.1791 92.4854 66.8118 92.4854C65.7179 92.4854 64.624 91.6927 64.624 90.3715C64.624 86.1436 68.1791 82.9727 72.2812 82.9727C76.6568 82.9727 79.9384 86.4078 79.9384 90.3715C80.4854 91.6927 79.3915 92.4854 78.2976 92.4854Z" fill="#16172F"/>
<path d="M114.67 92.4854C113.576 92.4854 112.482 91.6927 112.482 90.3715C112.482 88.5218 110.841 86.9363 108.927 86.9363C107.012 86.9363 105.372 88.5218 105.372 90.3715C105.372 91.4284 104.551 92.4854 103.184 92.4854C101.817 92.4854 100.996 91.6927 100.996 90.3715C100.996 86.1436 104.551 82.9727 108.653 82.9727C113.029 82.9727 116.31 86.4078 116.31 90.3715C116.584 91.6927 115.764 92.4854 114.67 92.4854Z" fill="#16172F"/>
<path d="M67.3587 78.7443H20.048C17.3133 78.7443 15.1255 76.6303 15.1255 73.9879V40.1647C15.1255 26.6883 26.6113 15.5901 40.5584 15.5901H109.2C111.935 15.5901 114.122 17.704 114.122 20.3465V33.5586C114.122 58.6618 93.0651 78.7443 67.3587 78.7443Z" fill="#3D3B3A"/>
<path d="M91.1506 22.4606L92.7915 22.7249C92.7915 20.0825 94.9792 17.9685 97.714 17.9685H132.718C146.665 17.9685 158.151 29.0667 158.151 42.5431L156.51 62.8899C156.51 65.5323 154.323 67.6463 151.588 67.6463H137.914C112.208 67.6463 91.1506 47.2995 91.1506 22.4606Z" fill="#3D3B3A"/>
<path d="M138.188 387.646H18.4072C8.28876 387.646 0.0845947 379.718 0.0845947 369.941V343.781H156.511V369.941C156.511 379.718 148.306 387.646 138.188 387.646Z" fill="#423D3A"/>
<path d="M111.661 527.166C99.3552 527.166 89.2367 517.389 89.2367 505.498V364.128H134.086V505.498C134.086 517.653 124.241 527.166 111.661 527.166Z" fill="#423D3A"/>
<path d="M57.5141 527.166C45.2078 527.166 35.0894 517.389 35.0894 505.498V364.128H79.9388V505.498C79.9388 517.653 69.8203 527.166 57.5141 527.166Z" fill="#423D3A"/>
<path d="M22.5093 399.8C10.2031 399.8 0.0845947 390.023 0.0845947 378.133V268.736H44.934V378.133C44.934 390.023 35.089 399.8 22.5093 399.8Z" fill="#F6CEB0"/>
<path d="M156.575 400.597C144.269 400.597 134.151 390.82 134.151 378.929V269.532H179V378.929C179 390.82 169.155 400.597 156.575 400.597Z" fill="#F6CEB0"/>
</svg>
