<?xml version="1.0" encoding="utf-8"?>
<!-- Generator: Adobe Illustrator 23.0.2, SVG Export Plug-In . SVG Version: 6.00 Build 0)  -->
<svg version="1.1" id="Ebene_1" xmlns="http://www.w3.org/2000/svg" xmlns:xlink="http://www.w3.org/1999/xlink" x="0px" y="0px"
	 viewBox="0 0 127 128" style="enable-background:new 0 0 127 128;" xml:space="preserve">
<style type="text/css">
	.st0{fill:#505050;}
</style>
<path class="st0" d="M120,58c-1-1.3-2.9-1.6-4.2-0.5c-1.3,1-1.5,3-0.5,4.3c1,1.3,1,3.1,0,4.4c-7.3,9.6-16.9,16.8-27.6,21.1
	c5.6-6.1,9.1-14.3,9.1-23.3c0-9-3.4-17.2-9-23.3c6.2,2.5,12,6,17.2,10.3c0.6,0.5,1.3,1.1,1.9,1.7c1.2,1.1,3.1,1,4.2-0.3
	c1.1-1.3,1-3.2-0.3-4.3c-0.7-0.6-1.4-1.2-2.1-1.8C95.9,35.6,79.7,29.7,63.1,29.7C40.7,29.7,20,40.1,6.2,58c-2.7,3.5-2.7,8.4,0,12
	c13.8,18,34.5,28.3,56.9,28.3c22.4,0,43.1-10.3,56.9-28.3C122.7,66.5,122.7,61.5,120,58z M10.9,66.2c-1-1.3-1-3.1,0-4.4
	c7.3-9.6,16.8-16.8,27.5-21.1C32.9,46.8,29.4,55,29.4,64c0,9,3.4,17.2,9.1,23.3C27.8,83,18.3,75.8,10.9,66.2z M63.1,92.1
	C63.1,92.1,63.1,92.1,63.1,92.1C63.1,92.1,63.1,92.1,63.1,92.1c-15.3,0-27.7-12.6-27.7-28.1c0-15.5,12.4-28.1,27.6-28.1c0,0,0,0,0,0
	c0,0,0,0,0,0c15.2,0,27.6,12.6,27.6,28.1C90.8,79.5,78.4,92.1,63.1,92.1z"/>
<path class="st0" d="M63.1,51c-7,0-12.7,5.8-12.7,13c0,7.1,5.7,13,12.7,13c7,0,12.7-5.8,12.7-13C75.8,56.9,70.1,51,63.1,51z
	 M63.1,70.9c-3.7,0-6.7-3.1-6.7-6.9s3-6.9,6.7-6.9c3.7,0,6.7,3.1,6.7,6.9S66.8,70.9,63.1,70.9z"/>
<path class="st0" d="M63.1,0c-1.7,0-3,1.4-3,3.1v11.5c0,1.7,1.3,3.1,3,3.1c1.7,0,3-1.4,3-3.1V3.1C66.1,1.4,64.7,0,63.1,0z"/>
<path class="st0" d="M63.1,110.4c-1.7,0-3,1.4-3,3.1v11.5c0,1.7,1.3,3.1,3,3.1c1.7,0,3-1.4,3-3.1v-11.5
	C66.1,111.8,64.7,110.4,63.1,110.4z"/>
<path class="st0" d="M107.6,18.7c-1.2-1.2-3.1-1.2-4.2,0l-5.6,5.7c-1.2,1.2-1.2,3.1,0,4.3c0.6,0.6,1.4,0.9,2.1,0.9
	c0.8,0,1.5-0.3,2.1-0.9l5.6-5.7C108.8,21.9,108.8,19.9,107.6,18.7z"/>
<path class="st0" d="M28.4,99.2c-1.2-1.2-3.1-1.2-4.2,0l-5.6,5.7c-1.2,1.2-1.2,3.1,0,4.3c0.6,0.6,1.4,0.9,2.1,0.9
	c0.8,0,1.5-0.3,2.1-0.9l5.6-5.7C29.6,102.4,29.6,100.4,28.4,99.2z"/>
<path class="st0" d="M28.4,24.4l-5.6-5.7c-1.2-1.2-3.1-1.2-4.2,0c-1.2,1.2-1.2,3.1,0,4.3l5.6,5.7c0.6,0.6,1.4,0.9,2.1,0.9
	s1.5-0.3,2.1-0.9C29.6,27.6,29.6,25.6,28.4,24.4z"/>
<path class="st0" d="M107.6,104.9l-5.6-5.7c-1.2-1.2-3.1-1.2-4.2,0c-1.2,1.2-1.2,3.1,0,4.3l5.6,5.7c0.6,0.6,1.4,0.9,2.1,0.9
	c0.8,0,1.5-0.3,2.1-0.9C108.8,108.1,108.8,106.1,107.6,104.9z"/>
</svg>
